<svg  width="800" class="poloto_background poloto" height="500" viewBox="0 0 800 500" xmlns="http://www.w3.org/2000/svg" > <style>.poloto { stroke-linecap:round; stroke-linejoin:round; font-family: 'Tahoma', sans-serif; stroke-width:2; } .scatter{stroke-width:7} .poloto_text{fill: black;} .poloto_axis_lines{stroke: black;stroke-width:3;fill:none;stroke-dasharray:none} .poloto_background{background-color: AliceBlue;} .poloto0stroke{stroke:  blue;} .poloto1stroke{stroke:  red;} .poloto2stroke{stroke:  green;} .poloto3stroke{stroke:  gold;} .poloto4stroke{stroke:  aqua;} .poloto5stroke{stroke:  lime;} .poloto6stroke{stroke:  orange;} .poloto7stroke{stroke:  chocolate;} .poloto0fill{fill:blue;} .poloto1fill{fill:red;} .poloto2fill{fill:green;} .poloto3fill{fill:gold;} .poloto4fill{fill:aqua;} .poloto5fill{fill:lime;} .poloto6fill{fill:orange;} .poloto7fill{fill:chocolate;}</style><text  class="poloto_text" alignment-baseline="middle" text-anchor="start" font-size="large" x="675" y="100" ></text><path  class="poloto0stroke" fill="none" stroke="black" d=" M 150 250 L 650 250" /><text  class="poloto_text" alignment-baseline="middle" text-anchor="start" font-size="large" x="675" y="150" ></text><path  class="poloto1stroke" fill="none" stroke="black" d=" M 400 400 L 400 100" /><text  class="poloto_text" alignment-baseline="middle" text-anchor="start" font-size="large" x="675" y="200" >Stand.Norm.Dist.</text><line  class="scatter poloto2stroke poloto2legend" stroke="black" x1="685" x2="685" y1="181.25" y2="181.25" /><path  class="scatter poloto2stroke" d=" M 246.28044447253427 293.66504922212005 h 0 M 466.8643039356305 216.10155231226523 h 0 M 456.36377136888194 259.4915654544785 h 0 M 419.6045800806814 215.1233304197299 h 0 M 479.8941493900185 258.4328161644541 h 0 M 386.43514842782747 225.40897230127032 h 0 M 412.30599716806165 256.3639284368521 h 0 M 394.52222330946665 236.78362266256738 h 0 M 410.5115250710095 270.09302041462877 h 0 M 237.95343308699955 228.03392366012434 h 0 M 488.25034057517604 317.48510148844275 h 0 M 470.304776691207 249.36855105687837 h 0 M 299.7866798713883 346.87183391548626 h 0 M 402.9493587172698 162.5488143787999 h 0 M 407.9154530013382 269.8229117535153 h 0 M 367.8712431734343 232.1001560934545 h 0 M 438.4190207859414 223.6604127415945 h 0 M 352.89734873656664 308.8920583860496 h 0 M 276.93119114997324 196.23155511307567 h 0 M 340.7515472038881 190.9214706801568 h 0 M 412.339890245312 224.47805850848414 h 0 M 530.1936418134871 227.42967782867817 h 0 M 377.9286251132039 229.307619225416 h 0 M 274.99016040096 278.000675933764 h 0 M 276.081943161345 206.70998744112853 h 0 M 454.6203727955396 247.9997087652523 h 0 M 471.62715100525645 288.49534230949297 h 0 M 310.8737792231663 248.54719482930463 h 0 M 374.77710754722955 300.3596200480382 h 0 M 573.5594673400833 232.89159828388335 h 0 M 384.65242034148986 274.7779877486483 h 0 M 174.88438604240628 254.75683732310043 h 0 M 371.3371719071349 253.31600682442843 h 0 M 439.2248376851245 304.2817106198922 h 0 M 424.9427174506818 252.68416827947772 h 0 M 309.54675475429053 222.84085059743424 h 0 M 334.8625695096406 196.56083225754026 h 0 M 328.08048403663315 194.69526122297518 h 0 M 342.61182220657474 331.9669501879375 h 0 M 361.6482417628314 230.19022671267777 h 0 M 242.95266846145097 302.0099648183591 h 0 M 402.1891581386085 267.694130648644 h 0 M 310.26661744162845 295.9853013029187 h 0 M 278.7848038344122 254.66622708981512 h 0 M 397.8568567587134 305.56628175556546 h 0 M 432.6345114028297 263.69011018032575 h 0 M 625.7672239077835 307.1495722292652 h 0 M 378.67659589210734 258.10392410323936 h 0 M 524.9375166121515 313.65759024866753 h 0 M 465.40227702661724 303.28062173274685 h 0 M 362.7837137466274 146.4270316856351 h 0 M 263.1071064442906 266.2926131152953 h 0 M 390.34131571840555 291.01534653472254 h 0 M 365.48396750636516 260.83838779403203 h 0 M 354.3011743972368 146.94777213348215 h 0 M 549.2998722580114 221.07428856747015 h 0 M 388.65753180068555 246.00714351224224 h 0 M 315.3954587048232 237.2636553687008 h 0 M 478.36934467964113 280.89553916916196 h 0 M 513.510190386145 250.3001590710379 h 0 M 362.7639224390352 289.231256344549 h 0 M 489.1725242725441 228.1492738260112 h 0 M 386.0915770378555 263.64528022732827 h 0 M 353.80224369941277 220.78928311468437 h 0 M 393.42746837160894 220.0663231446 h 0 M 241.94954086925486 314.8213526209653 h 0 M 366.1334378948077 340.01219131277924 h 0 M 503.2068880268756 247.87446365286303 h 0 M 424.20930415644074 231.0631067511789 h 0 M 449.43248445356204 186.76550337811148 h 0 M 345.2876214064109 129.99604626107714 h 0 M 474.09701790805786 291.9731912495292 h 0 M 250.12180691326412 286.44655208225765 h 0 M 545.3787870910937 242.08156900259647 h 0 M 204.07919546673486 162.36726582992605 h 0 M 419.1514709755854 236.03120784366303 h 0 M 322.55988713545565 298.079697420087 h 0 M 267.1493440673373 184.5683536348206 h 0 M 357.45431250413594 250.29981696055742 h 0 M 418.08664626923274 262.0614798265326 h 0 M 333.4777360686634 222.80685300606635 h 0 M 313.7994373622032 221.12450396954912 h 0 M 572.4986443202315 219.97563013722862 h 0 M 576.8391289746808 242.93493888229642 h 0 M 441.0554730847564 217.70241289823414 h 0 M 373.7762194009133 316.76634661047177 h 0 M 351.1507774992979 176.55697654752746 h 0 M 337.53644073007234 221.9580852984089 h 0 M 414.16320109360663 136.95873177248552 h 0 M 377.94904514613665 293.5383385396885 h 0 M 449.0922621278939 232.82755793315948 h 0 M 377.15931999458013 217.01184719057403 h 0 M 391.59373040920764 269.94742511919264 h 0 M 473.2429211426453 269.09867291437365 h 0 M 422.63092724552234 321.1293223678758 h 0 M 345.04727614824515 279.19465716741627 h 0 M 398.41238777649016 275.20838178550207 h 0 M 245.1137090330343 269.6835891943826 h 0 M 505.8772242424229 268.0690187440027 h 0 M 326.8635713135581 221.19802753344456 h 0 M 252.2546752602035 206.079763462042 h 0 M 394.96971720972255 211.3152527893198 h 0 M 370.00736572012016 214.0491410649534 h 0 M 432.0726343286297 244.66259914533026 h 0 M 306.24981042262095 248.46351967030057 h 0 M 463.8139836538439 369.9735910596096 h 0 M 314.3575034923492 263.8065979787041 h 0 M 381.4073221772351 280.07663903173193 h 0 M 568.081388112396 225.42218884100086 h 0 M 317.72822510166554 173.34916571097034 h 0 M 449.95991911596894 229.3349575946033 h 0 M 221.152097530287 202.98500681103184 h 0 M 544.2227705963982 237.73546795013465 h 0 M 340.38610070778793 188.88365117883845 h 0 M 424.50321160270727 159.9378498128508 h 0 M 324.66135066513493 224.20356101982898 h 0 M 535.9654548617873 234.45824936731356 h 0 M 418.2149084875827 144.7203152578356 h 0 M 364.51911326209864 243.595924520754 h 0 M 250.88977771983903 365.9758228161498 h 0 M 525.7318952720857 328.58312113703744 h 0 M 348.50424805401565 383.00726089472414 h 0 M 382.5575444451314 177.1723020582014 h 0 M 306.27958340564135 165.80813204821362 h 0 M 476.46301478764383 218.65371077003385 h 0 M 275.60321610520924 238.79674508834216 h 0 M 384.4838443554328 324.336856238093 h 0 M 324.7915301693014 174.85668326087512 h 0 M 505.17669274419205 293.3259612264031 h 0 M 385.76404973292074 298.16583212194473 h 0 M 481.6920969456154 261.7947777865819 h 0 M 337.27319398911567 339.5648182322146 h 0 M 439.9107267060627 189.41626913852758 h 0 M 347.975794124296 268.81177140357204 h 0 M 487.1441027442428 215.6387932039456 h 0 M 333.11475378131877 345.88695379182326 h 0 M 457.98261231202804 242.4240326534058 h 0 M 445.1094696564467 288.2363688989695 h 0 M 272.2384656508099 289.70988433899583 h 0 M 418.01358694926626 317.10685966836985 h 0 M 426.27300136260544 324.823240635224 h 0 M 432.89478886263055 217.2806859276002 h 0 M 462.83738201144115 147.06647466203773 h 0 M 392.5196816213138 293.2403654771904 h 0 M 478.0928699003897 271.1296769375152 h 0 M 429.3273430721061 342.92132109000556 h 0 M 444.51155622035833 237.12665732570014 h 0 M 367.4090848621945 198.78231753727243 h 0 M 424.11485869351196 324.8350343539039 h 0 M 386.208178394329 192.390733794266 h 0 M 432.5457130220032 263.9400821791779 h 0 M 469.33386966946495 324.6088004636524 h 0 M 297.66858225301473 228.33202152424178 h 0 M 382.3547799156097 267.76441836025907 h 0 M 493.59268093490203 243.73320635922298 h 0 M 350.78880797704204 250.34086928533554 h 0 M 308.0822205925607 209.88862104328697 h 0 M 506.04358413552774 296.34875292446395 h 0 M 374.7643671192268 316.9427768482531 h 0 M 370.61579847175426 297.4671324894149 h 0 M 473.0737047340669 337.92955976959024 h 0 M 372.4736319472478 207.10862719184271 h 0 M 355.1978641068359 225.48802794417898 h 0 M 307.682795353396 263.5769232878042 h 0 M 429.2373413811335 255.42232773879303 h 0 M 566.35594723071 288.4815514472847 h 0 M 471.2258689249084 237.13019543234012 h 0 M 500.681441943054 358.553497937778 h 0 M 227.6188498880723 273.54503363791355 h 0 M 402.3055192886193 267.8438098626324 h 0 M 373.61179391826045 300.7779816471397 h 0 M 565.7963357500917 228.9683911419661 h 0 M 318.7616509082588 294.1795451465131 h 0 M 318.49064398071937 261.7315449954252 h 0 M 567.4730867326102 236.28922390593834 h 0 M 511.96792945231505 212.294257264217 h 0 M 326.7737701817016 278.6330677844883 h 0 M 440.25224627289873 344.6948709371617 h 0 M 449.3848699799244 265.91840742727857 h 0 M 335.6493936608473 295.49287702418326 h 0 M 441.4785416848194 280.9318725299861 h 0 M 387.84025993579564 220.57513398230188 h 0 M 455.4029567758898 274.51550107644186 h 0 M 344.2877829476774 188.8272721502641 h 0 M 483.50824565859307 246.66721160371225 h 0 M 507.41589485116697 309.0934452752292 h 0 M 355.75491530624794 258.2159770414537 h 0 M 207.74784768050247 250.59447503383817 h 0 M 481.9819833978863 336.6962932562956 h 0 M 564.922761473082 262.4589841243368 h 0 M 374.01035707082235 247.0773783873653 h 0 M 269.0445589874683 286.9217767618774 h 0 M 457.2166472962253 256.72694720173405 h 0 M 436.7645455173182 186.25816668829813 h 0 M 404.99387581992573 159.79690992121823 h 0 M 281.8432629714497 270.06087367616266 h 0 M 307.09158498990973 240.88572449920525 h 0 M 355.29833327559925 211.4919623157668 h 0 M 476.73958485145533 226.17460987377137 h 0 M 466.09260234617966 262.7899862456054 h 0 M 216.19099193081416 275.34210556096986 h 0 M 425.94347319099177 300.9359614033482 h 0 M 370.63441512550037 241.83407711376591 h 0 M 471.6792667443799 300.95769865025744 h 0 M 331.0323075995865 303.58787906088804 h 0 M 322.1000402334538 298.0078551475013 h 0 M 431.852676222154 276.01813623520263 h 0 M 324.79477874638974 264.9799173287646 h 0 M 214.17258270691968 257.5800120440153 h 0 M 378.0940509864747 284.1433120249757 h 0 M 288.4516975046706 252.6094019495725 h 0 M 469.748850515012 264.0242846568036 h 0 M 557.2367332273561 215.27751765907627 h 0 M 423.54445341437247 280.91379108674806 h 0 M 209.93995273572776 285.81812218894385 h 0 M 409.4104224001713 314.13360678475925 h 0 M 489.59690828281066 314.95763835474577 h 0 M 484.7763333314297 352.81529704558596 h 0 M 315.54535017876356 271.04599403954336 h 0 M 373.3047306073877 162.76794705181334 h 0 M 321.88859725787745 328.7673049050777 h 0 M 378.769395113138 303.43750689709475 h 0 M 318.48120861309656 311.19759398536877 h 0 M 380.01978455586675 306.15252823993757 h 0 M 373.344973147751 302.7889775400129 h 0 M 416.6410430540963 245.20244610090248 h 0 M 444.9076124239898 287.8282557526119 h 0 M 575.2109353513847 226.6031738407872 h 0 M 293.41925737828484 296.48693447512204 h 0 M 394.85085330510117 302.8893904990654 h 0 M 406.14073705393304 235.54545070791082 h 0 M 402.90630844035087 246.12901823655724 h 0 M 449.6850476395446 333.7187682409893 h 0 M 401.6212696533319 142.1625978833129 h 0 M 395.9745695816458 232.9067435591149 h 0 M 439.3098464384719 207.2738832477401 h 0 M 309.0374189446937 374.25587619441865 h 0 M 426.3377363833062 381.850248781669 h 0 M 324.3807256718496 203.58894968102922 h 0 M 396.2270703932677 246.20992575879293 h 0 M 425.5523952931561 283.33578880060577 h 0 M 467.06787008251143 276.08636347956957 h 0 M 275.09379340710865 282.3970312050588 h 0 M 236.91652307114634 236.16489465341627 h 0 M 349.96189108270664 214.74876941415582 h 0 M 504.95728474144954 311.59924304840126 h 0 M 373.8761974971019 294.92760873924635 h 0 M 601.271966722436 199.54625176097895 h 0 M 272.0521251341888 242.79171990741673 h 0 M 260.57477974153835 149.7065752070113 h 0 M 386.08836569148093 171.75951742248577 h 0 M 461.56999565929374 307.2109061828651 h 0 M 255.46060321731113 268.94357952762743 h 0 M 337.35977240991275 250.05367677891635 h 0 M 466.2786253748093 298.27474375040316 h 0 M 373.0905678175981 242.7139934983744 h 0 M 363.7214483726723 261.6191653987306 h 0 M 455.2202503798737 266.4937588527404 h 0 M 339.6715283116995 239.16494433453326 h 0 M 511.5843439169924 280.36639731513105 h 0 M 363.1425953268314 234.84059124646154 h 0 M 408.35634796670723 187.7091367619704 h 0 M 325.7431285220344 315.89153624075215 h 0 M 386.3658743892505 339.2566420512162 h 0 M 371.068516956152 208.34118823014785 h 0 M 482.4486264216405 189.74410953952088 h 0 M 294.9899326298247 243.11188716190176 h 0 M 375.77625339484644 188.03302708703094 h 0 M 300.7460356808655 317.01204106720957 h 0 M 460.87771095201543 227.61695641763885 h 0 M 388.6723381495759 360.7703969751634 h 0 M 317.2486615228047 338.75563871860237 h 0 M 358.9453677869034 283.88501008672995 h 0 M 482.4913428083846 249.3960255747619 h 0 M 425.1951374767601 242.39143438225977 h 0 M 205.02658290294238 308.47374039266725 h 0 M 298.60440469066134 241.13312840906326 h 0 M 478.54773809605757 281.229689444877 h 0 M 529.4170622595269 222.318329708177 h 0 M 427.2838034001985 168.75287499453387 h 0 M 372.74521665451243 265.2668836095585 h 0 M 539.0287995715767 344.7337863823513 h 0 M 504.8982424451301 248.51090020123337 h 0 M 326.7247506441432 268.9295824541681 h 0 M 411.8482346343417 237.27723175578578 h 0 M 468.4373469509912 279.13538115011727 h 0 M 234.32251453461066 222.56873973288762 h 0 M 374.8297952080884 193.82923764736995 h 0 M 437.8120452779197 121.07774570488903 h 0 M 408.9016818614376 265.079505279458 h 0 M 432.83449332586804 213.05448337771423 h 0 M 467.754327362035 322.6374104287883 h 0 M 465.1824320324078 193.75708351947134 h 0 M 355.2073581155337 174.71889886465922 h 0 M 381.6992631367428 294.03733840335076 h 0 M 483.47974552070946 268.63621068674513 h 0 M 386.00923002991385 339.6193061466658 h 0 M 470.60448431213314 188.60318252359116 h 0 M 557.372847955451 271.3216782153926 h 0 M 400.3932361127618 247.4878462152939 h 0" /><text  class="poloto_text" alignment-baseline="start" text-anchor="middle" font-size="x-large" x="400" y="37.5" >Scatter Plot</text><text  class="poloto_text" alignment-baseline="start" text-anchor="middle" font-size="x-large" x="400" y="481.25" >x</text><text  class="poloto_text" alignment-baseline="start" text-anchor="middle" font-size="x-large" transform="rotate(-90,37.5,250)" x="37.5" y="250" >y</text><line  class="poloto_axis_lines" stroke="black" x1="150" x2="150" y1="400" y2="405" /><text  class="poloto_text" alignment-baseline="start" text-anchor="middle" x="150" y="430" > -3</text><line  class="poloto_axis_lines" stroke="black" x1="233.33333333333331" x2="233.33333333333331" y1="400" y2="405" /><text  class="poloto_text" alignment-baseline="start" text-anchor="middle" x="233.33333333333331" y="430" > -2</text><line  class="poloto_axis_lines" stroke="black" x1="316.66666666666663" x2="316.66666666666663" y1="400" y2="405" /><text  class="poloto_text" alignment-baseline="start" text-anchor="middle" x="316.66666666666663" y="430" > -1</text><line  class="poloto_axis_lines" stroke="black" x1="400" x2="400" y1="400" y2="405" /><text  class="poloto_text" alignment-baseline="start" text-anchor="middle" x="400" y="430" > 0</text><line  class="poloto_axis_lines" stroke="black" x1="483.3333333333333" x2="483.3333333333333" y1="400" y2="405" /><text  class="poloto_text" alignment-baseline="start" text-anchor="middle" x="483.3333333333333" y="430" > 1</text><line  class="poloto_axis_lines" stroke="black" x1="566.6666666666666" x2="566.6666666666666" y1="400" y2="405" /><text  class="poloto_text" alignment-baseline="start" text-anchor="middle" x="566.6666666666666" y="430" > 2</text><line  class="poloto_axis_lines" stroke="black" x1="650" x2="650" y1="400" y2="405" /><text  class="poloto_text" alignment-baseline="start" text-anchor="middle" x="650" y="430" > 3</text><line  class="poloto_axis_lines" stroke="black" x1="150" x2="144" y1="350" y2="350" /><text  class="poloto_text" alignment-baseline="middle" text-anchor="end" x="135" y="350" > -2</text><line  class="poloto_axis_lines" stroke="black" x1="150" x2="144" y1="250" y2="250" /><text  class="poloto_text" alignment-baseline="middle" text-anchor="end" x="135" y="250" > 0</text><line  class="poloto_axis_lines" stroke="black" x1="150" x2="144" y1="150" y2="150" /><text  class="poloto_text" alignment-baseline="middle" text-anchor="end" x="135" y="150" > 2</text><path  stroke="black" fill="none" class="poloto_axis_lines" style="stroke-dasharray:8.333333333333332;stroke-dashoffset:-0;" d=" M 150 400 L 650 400" /><path  stroke="black" fill="none" class="poloto_axis_lines" style="stroke-dasharray:8.333333333333334;stroke-dashoffset:-50;" d=" M 150 400 L 150 100" /></svg>