<svg  width="800" class="poloto_background poloto" height="500" viewBox="0 0 800 500" xmlns="http://www.w3.org/2000/svg" > <style>.poloto { stroke-linecap:round; stroke-linejoin:round; font-family: 'Tahoma', sans-serif; stroke-width:2; } .scatter{stroke-width:7} .poloto_text{fill: black;} .poloto_axis_lines{stroke: black;stroke-width:3;fill:none;stroke-dasharray:none} .poloto_background{background-color: AliceBlue;} .poloto0stroke{stroke:  blue;} .poloto1stroke{stroke:  red;} .poloto2stroke{stroke:  green;} .poloto3stroke{stroke:  gold;} .poloto4stroke{stroke:  aqua;} .poloto5stroke{stroke:  lime;} .poloto6stroke{stroke:  orange;} .poloto7stroke{stroke:  chocolate;} .poloto0fill{fill:blue;} .poloto1fill{fill:red;} .poloto2fill{fill:green;} .poloto3fill{fill:gold;} .poloto4fill{fill:aqua;} .poloto5fill{fill:lime;} .poloto6fill{fill:orange;} .poloto7fill{fill:chocolate;}</style><text  class="poloto_text" alignment-baseline="middle" text-anchor="start" font-size="large" x="675" y="100" >Stand.Norm.Dist.</text><rect  class="poloto0fill poloto0legend" x="680" y="76.25" width="50" height="7.5" rx="5" ry="5" /><g  class="poloto0fill" ><rect  x="150" y="399.1666666666667" width="3" height="0.8333333333333144" /><rect  x="155.05050505050505" y="400" width="3" height="0" /><rect  x="160.1010101010101" y="400" width="3" height="0" /><rect  x="165.15151515151516" y="400" width="3" height="0" /><rect  x="170.2020202020202" y="400" width="3" height="0" /><rect  x="175.25252525252526" y="399.1666666666667" width="3" height="0.8333333333333144" /><rect  x="180.3030303030303" y="400" width="3" height="0" /><rect  x="185.35353535353534" y="400" width="3" height="0" /><rect  x="190.40404040404042" y="400" width="3" height="0" /><rect  x="195.45454545454544" y="399.1666666666667" width="3" height="0.8333333333333144" /><rect  x="200.50505050505052" y="399.1666666666667" width="3" height="0.8333333333333144" /><rect  x="205.55555555555554" y="399.1666666666667" width="3" height="0.8333333333333144" /><rect  x="210.6060606060606" y="398.3333333333333" width="3" height="1.6666666666666856" /><rect  x="215.65656565656565" y="400" width="3" height="0" /><rect  x="220.7070707070707" y="399.1666666666667" width="3" height="0.8333333333333144" /><rect  x="225.75757575757575" y="396.6666666666667" width="3" height="3.3333333333333144" /><rect  x="230.8080808080808" y="399.1666666666667" width="3" height="0.8333333333333144" /><rect  x="235.85858585858585" y="399.1666666666667" width="3" height="0.8333333333333144" /><rect  x="240.9090909090909" y="394.1666666666667" width="3" height="5.833333333333314" /><rect  x="245.95959595959596" y="393.3333333333333" width="3" height="6.666666666666686" /><rect  x="251.010101010101" y="391.6666666666667" width="3" height="8.333333333333314" /><rect  x="256.06060606060606" y="393.3333333333333" width="3" height="6.666666666666686" /><rect  x="261.1111111111111" y="387.5" width="3" height="12.5" /><rect  x="266.16161616161617" y="385.8333333333333" width="3" height="14.166666666666686" /><rect  x="271.2121212121212" y="376.6666666666667" width="3" height="23.333333333333314" /><rect  x="276.26262626262627" y="375" width="3" height="25" /><rect  x="281.3131313131313" y="378.3333333333333" width="3" height="21.666666666666686" /><rect  x="286.3636363636364" y="373.3333333333333" width="3" height="26.666666666666686" /><rect  x="291.4141414141414" y="360.8333333333333" width="3" height="39.166666666666686" /><rect  x="296.4646464646464" y="360" width="3" height="40" /><rect  x="301.5151515151515" y="355.8333333333333" width="3" height="44.166666666666686" /><rect  x="306.5656565656566" y="347.5" width="3" height="52.5" /><rect  x="311.6161616161616" y="342.5" width="3" height="57.5" /><rect  x="316.66666666666663" y="335" width="3" height="65" /><rect  x="321.7171717171717" y="337.5" width="3" height="62.5" /><rect  x="326.7676767676768" y="308.3333333333333" width="3" height="91.66666666666669" /><rect  x="331.8181818181818" y="289.16666666666663" width="3" height="110.83333333333337" /><rect  x="336.86868686868684" y="285" width="3" height="115" /><rect  x="341.9191919191919" y="276.66666666666663" width="3" height="123.33333333333337" /><rect  x="346.969696969697" y="274.16666666666663" width="3" height="125.83333333333337" /><rect  x="352.020202020202" y="228.33333333333331" width="3" height="171.66666666666669" /><rect  x="357.07070707070704" y="225" width="3" height="175" /><rect  x="362.1212121212121" y="202.5" width="3" height="197.5" /><rect  x="367.17171717171715" y="219.16666666666666" width="3" height="180.83333333333334" /><rect  x="372.2222222222222" y="192.5" width="3" height="207.5" /><rect  x="377.27272727272725" y="190.83333333333331" width="3" height="209.16666666666669" /><rect  x="382.32323232323233" y="163.33333333333331" width="3" height="236.66666666666669" /><rect  x="387.37373737373736" y="176.66666666666666" width="3" height="223.33333333333334" /><rect  x="392.4242424242424" y="180" width="3" height="220" /><rect  x="397.47474747474746" y="141.66666666666663" width="3" height="258.33333333333337" /><rect  x="402.52525252525254" y="170.83333333333331" width="3" height="229.16666666666669" /><rect  x="407.57575757575756" y="184.16666666666666" width="3" height="215.83333333333334" /><rect  x="412.6262626262626" y="167.5" width="3" height="232.5" /><rect  x="417.67676767676767" y="144.16666666666666" width="3" height="255.83333333333334" /><rect  x="422.7272727272727" y="125" width="3" height="275" /><rect  x="427.77777777777777" y="100" width="3" height="300" /><rect  x="432.8282828282828" y="135" width="3" height="265" /><rect  x="437.8787878787879" y="165.83333333333331" width="3" height="234.16666666666669" /><rect  x="442.9292929292929" y="176.66666666666666" width="3" height="223.33333333333334" /><rect  x="447.979797979798" y="165.83333333333331" width="3" height="234.16666666666669" /><rect  x="453.030303030303" y="165.83333333333331" width="3" height="234.16666666666669" /><rect  x="458.0808080808081" y="193.33333333333331" width="3" height="206.66666666666669" /><rect  x="463.1313131313131" y="167.5" width="3" height="232.5" /><rect  x="468.1818181818182" y="176.66666666666666" width="3" height="223.33333333333334" /><rect  x="473.2323232323232" y="205" width="3" height="195" /><rect  x="478.28282828282823" y="217.5" width="3" height="182.5" /><rect  x="483.3333333333333" y="237.5" width="3" height="162.5" /><rect  x="488.38383838383834" y="242.5" width="3" height="157.5" /><rect  x="493.4343434343434" y="259.16666666666663" width="3" height="140.83333333333337" /><rect  x="498.48484848484844" y="280" width="3" height="120" /><rect  x="503.5353535353535" y="293.3333333333333" width="3" height="106.66666666666669" /><rect  x="508.58585858585855" y="291.66666666666663" width="3" height="108.33333333333337" /><rect  x="513.6363636363636" y="310.8333333333333" width="3" height="89.16666666666669" /><rect  x="518.6868686868686" y="310.8333333333333" width="3" height="89.16666666666669" /><rect  x="523.7373737373737" y="329.16666666666663" width="3" height="70.83333333333337" /><rect  x="528.7878787878788" y="350" width="3" height="50" /><rect  x="533.8383838383838" y="346.6666666666667" width="3" height="53.333333333333314" /><rect  x="538.8888888888889" y="352.5" width="3" height="47.5" /><rect  x="543.939393939394" y="347.5" width="3" height="52.5" /><rect  x="548.989898989899" y="370.8333333333333" width="3" height="29.166666666666686" /><rect  x="554.040404040404" y="371.6666666666667" width="3" height="28.333333333333314" /><rect  x="559.090909090909" y="380.8333333333333" width="3" height="19.166666666666686" /><rect  x="564.1414141414141" y="384.1666666666667" width="3" height="15.833333333333314" /><rect  x="569.1919191919192" y="385.8333333333333" width="3" height="14.166666666666686" /><rect  x="574.2424242424242" y="387.5" width="3" height="12.5" /><rect  x="579.2929292929293" y="391.6666666666667" width="3" height="8.333333333333314" /><rect  x="584.3434343434343" y="390" width="3" height="10" /><rect  x="589.3939393939394" y="388.3333333333333" width="3" height="11.666666666666686" /><rect  x="594.4444444444443" y="396.6666666666667" width="3" height="3.3333333333333144" /><rect  x="599.4949494949494" y="396.6666666666667" width="3" height="3.3333333333333144" /><rect  x="604.5454545454545" y="395.8333333333333" width="3" height="4.166666666666686" /><rect  x="609.5959595959596" y="397.5" width="3" height="2.5" /><rect  x="614.6464646464647" y="397.5" width="3" height="2.5" /><rect  x="619.6969696969697" y="399.1666666666667" width="3" height="0.8333333333333144" /><rect  x="624.7474747474747" y="397.5" width="3" height="2.5" /><rect  x="629.7979797979798" y="398.3333333333333" width="3" height="1.6666666666666856" /><rect  x="634.8484848484848" y="398.3333333333333" width="3" height="1.6666666666666856" /><rect  x="639.8989898989898" y="398.3333333333333" width="3" height="1.6666666666666856" /><rect  x="644.9494949494949" y="399.1666666666667" width="3" height="0.8333333333333144" /></g><text  class="poloto_text" alignment-baseline="start" text-anchor="middle" font-size="x-large" x="400" y="37.5" >Histogram</text><text  class="poloto_text" alignment-baseline="start" text-anchor="middle" font-size="x-large" x="400" y="481.25" >x</text><text  class="poloto_text" alignment-baseline="start" text-anchor="middle" font-size="x-large" transform="rotate(-90,37.5,250)" x="37.5" y="250" >y</text><line  class="poloto_axis_lines" stroke="black" x1="150" x2="150" y1="400" y2="405" /><text  class="poloto_text" alignment-baseline="start" text-anchor="middle" x="150" y="430" > 0</text><line  class="poloto_axis_lines" stroke="black" x1="251.010101010101" x2="251.010101010101" y1="400" y2="405" /><text  class="poloto_text" alignment-baseline="start" text-anchor="middle" x="251.010101010101" y="430" > 20</text><line  class="poloto_axis_lines" stroke="black" x1="352.020202020202" x2="352.020202020202" y1="400" y2="405" /><text  class="poloto_text" alignment-baseline="start" text-anchor="middle" x="352.020202020202" y="430" > 40</text><line  class="poloto_axis_lines" stroke="black" x1="453.030303030303" x2="453.030303030303" y1="400" y2="405" /><text  class="poloto_text" alignment-baseline="start" text-anchor="middle" x="453.030303030303" y="430" > 60</text><line  class="poloto_axis_lines" stroke="black" x1="554.040404040404" x2="554.040404040404" y1="400" y2="405" /><text  class="poloto_text" alignment-baseline="start" text-anchor="middle" x="554.040404040404" y="430" > 80</text><line  class="poloto_axis_lines" stroke="black" x1="150" x2="144" y1="400" y2="400" /><text  class="poloto_text" alignment-baseline="middle" text-anchor="end" x="135" y="400" > 0</text><line  class="poloto_axis_lines" stroke="black" x1="150" x2="144" y1="316.66666666666663" y2="316.66666666666663" /><text  class="poloto_text" alignment-baseline="middle" text-anchor="end" x="135" y="316.66666666666663" > 100</text><line  class="poloto_axis_lines" stroke="black" x1="150" x2="144" y1="233.33333333333331" y2="233.33333333333331" /><text  class="poloto_text" alignment-baseline="middle" text-anchor="end" x="135" y="233.33333333333331" > 200</text><line  class="poloto_axis_lines" stroke="black" x1="150" x2="144" y1="150" y2="150" /><text  class="poloto_text" alignment-baseline="middle" text-anchor="end" x="135" y="150" > 300</text><path  stroke="black" fill="none" class="poloto_axis_lines" style="stroke-dasharray:8.417508417508417;stroke-dashoffset:-0;" d=" M 150 400 L 650 400" /><path  stroke="black" fill="none" class="poloto_axis_lines" style="stroke-dasharray:8.333333333333334;stroke-dashoffset:-0;" d=" M 150 400 L 150 100" /></svg>