<svg  width="800" class="poloto_background poloto" height="500" viewBox="0 0 800 500" xmlns="http://www.w3.org/2000/svg" > <style>.poloto { stroke-linecap:round; stroke-linejoin:round; font-family: 'Tahoma', sans-serif; stroke-width:2; } .scatter{stroke-width:7} .poloto_text{fill: black;} .poloto_axis_lines{stroke: black;stroke-width:3;fill:none;stroke-dasharray:none} .poloto_background{background-color: AliceBlue;} .poloto0stroke{stroke:  blue;} .poloto1stroke{stroke:  red;} .poloto2stroke{stroke:  green;} .poloto3stroke{stroke:  gold;} .poloto4stroke{stroke:  aqua;} .poloto5stroke{stroke:  lime;} .poloto6stroke{stroke:  orange;} .poloto7stroke{stroke:  chocolate;} .poloto0fill{fill:blue;} .poloto1fill{fill:red;} .poloto2fill{fill:green;} .poloto3fill{fill:gold;} .poloto4fill{fill:aqua;} .poloto5fill{fill:lime;} .poloto6fill{fill:orange;} .poloto7fill{fill:chocolate;}</style><text  class="poloto_text" alignment-baseline="middle" text-anchor="start" font-size="large" x="675" y="100" >Stand.Norm.Dist.</text><rect  class="poloto0fill poloto0legend" x="680" y="76.25" width="50" height="7.5" rx="5" ry="5" /><g  class="poloto0fill" ><rect  x="150" y="396.2145110410095" width="3" height="3.785488958990527" /><rect  x="155" y="399.05362776025237" width="3" height="0.9463722397476317" /><rect  x="160" y="400" width="3" height="0" /><rect  x="165" y="400" width="3" height="0" /><rect  x="170" y="396.2145110410095" width="3" height="3.785488958990527" /><rect  x="175" y="398.10725552050474" width="3" height="1.8927444794952635" /><rect  x="180" y="394.3217665615142" width="3" height="5.67823343848579" /><rect  x="185" y="392.42902208201895" width="3" height="7.570977917981054" /><rect  x="190" y="396.2145110410095" width="3" height="3.785488958990527" /><rect  x="195" y="397.1608832807571" width="3" height="2.839116719242895" /><rect  x="200" y="394.3217665615142" width="3" height="5.67823343848579" /><rect  x="205" y="393.3753943217666" width="3" height="6.624605678233422" /><rect  x="210" y="394.3217665615142" width="3" height="5.67823343848579" /><rect  x="215" y="393.3753943217666" width="3" height="6.624605678233422" /><rect  x="220" y="382.9652996845426" width="3" height="17.034700315457428" /><rect  x="225" y="379.17981072555204" width="3" height="20.820189274447955" /><rect  x="230" y="382.01892744479494" width="3" height="17.98107255520506" /><rect  x="235" y="371.608832807571" width="3" height="28.39116719242901" /><rect  x="240" y="377.2870662460568" width="3" height="22.71293375394322" /><rect  x="245" y="367.82334384858046" width="3" height="32.176656151419536" /><rect  x="250" y="353.62776025236593" width="3" height="46.37223974763407" /><rect  x="255" y="356.4668769716088" width="3" height="43.533123028391174" /><rect  x="260" y="344.1640378548896" width="3" height="55.835962145110386" /><rect  x="265" y="339.4321766561514" width="3" height="60.5678233438486" /><rect  x="270" y="330.9148264984227" width="3" height="69.08517350157729" /><rect  x="275" y="336.5930599369085" width="3" height="63.4069400630915" /><rect  x="280" y="326.18296529968455" width="3" height="73.81703470031545" /><rect  x="285" y="308.2018927444795" width="3" height="91.7981072555205" /><rect  x="290" y="305.3627760252366" width="3" height="94.6372239747634" /><rect  x="295" y="276.9716088328076" width="3" height="123.02839116719241" /><rect  x="300" y="261.8296529968454" width="3" height="138.17034700315457" /><rect  x="305" y="268.4542586750789" width="3" height="131.5457413249211" /><rect  x="310" y="254.25867507886434" width="3" height="145.74132492113566" /><rect  x="315" y="210.7255520504732" width="3" height="189.2744479495268" /><rect  x="320" y="218.29652996845425" width="3" height="181.70347003154575" /><rect  x="325" y="223.02839116719244" width="3" height="176.97160883280756" /><rect  x="330" y="200.31545741324922" width="3" height="199.68454258675078" /><rect  x="335" y="195.58359621451103" width="3" height="204.41640378548897" /><rect  x="340" y="191.7981072555205" width="3" height="208.2018927444795" /><rect  x="345" y="143.53312302839117" width="3" height="256.4668769716088" /><rect  x="350" y="159.62145110410094" width="3" height="240.37854889589906" /><rect  x="355" y="155.83596214511041" width="3" height="244.16403785488959" /><rect  x="360" y="135.96214511041012" width="3" height="264.0378548895899" /><rect  x="365" y="111.35646687697158" width="3" height="288.6435331230284" /><rect  x="370" y="147.3186119873817" width="3" height="252.6813880126183" /><rect  x="375" y="119.87381703470032" width="3" height="280.1261829652997" /><rect  x="380" y="111.35646687697158" width="3" height="288.6435331230284" /><rect  x="385" y="139.74763406940065" width="3" height="260.25236593059935" /><rect  x="390" y="100" width="3" height="300" /><rect  x="395" y="104.73186119873816" width="3" height="295.26813880126184" /><rect  x="400" y="135.96214511041012" width="3" height="264.0378548895899" /><rect  x="405" y="139.74763406940065" width="3" height="260.25236593059935" /><rect  x="410" y="154.88958990536278" width="3" height="245.11041009463722" /><rect  x="415" y="138.80126182965301" width="3" height="261.198738170347" /><rect  x="420" y="181.38801261829653" width="3" height="218.61198738170347" /><rect  x="425" y="157.72870662460568" width="3" height="242.27129337539432" /><rect  x="430" y="191.7981072555205" width="3" height="208.2018927444795" /><rect  x="435" y="186.1198738170347" width="3" height="213.8801261829653" /><rect  x="440" y="200.31545741324922" width="3" height="199.68454258675078" /><rect  x="445" y="240.06309148264984" width="3" height="159.93690851735016" /><rect  x="450" y="225.86750788643533" width="3" height="174.13249211356467" /><rect  x="455" y="225.86750788643533" width="3" height="174.13249211356467" /><rect  x="460" y="236.2776025236593" width="3" height="163.7223974763407" /><rect  x="465" y="249.52681388012618" width="3" height="150.47318611987382" /><rect  x="470" y="259.93690851735016" width="3" height="140.06309148264984" /><rect  x="475" y="286.4353312302839" width="3" height="113.56466876971609" /><rect  x="480" y="291.16719242902207" width="3" height="108.83280757097793" /><rect  x="485" y="303.47003154574134" width="3" height="96.52996845425866" /><rect  x="490" y="320.5047318611987" width="3" height="79.4952681388013" /><rect  x="495" y="318.61198738170344" width="3" height="81.38801261829656" /><rect  x="500" y="312.93375394321765" width="3" height="87.06624605678235" /><rect  x="505" y="345.11041009463725" width="3" height="54.889589905362755" /><rect  x="510" y="355.5205047318612" width="3" height="44.479495268138805" /><rect  x="515" y="364.0378548895899" width="3" height="35.96214511041012" /><rect  x="520" y="351.73501577287067" width="3" height="48.26498422712933" /><rect  x="525" y="376.34069400630915" width="3" height="23.65930599369085" /><rect  x="530" y="370.66246056782336" width="3" height="29.33753943217664" /><rect  x="535" y="381.0725552050473" width="3" height="18.92744479495269" /><rect  x="540" y="381.0725552050473" width="3" height="18.92744479495269" /><rect  x="545" y="384.85804416403784" width="3" height="15.141955835962165" /><rect  x="550" y="386.7507886435331" width="3" height="13.249211356466901" /><rect  x="555" y="386.7507886435331" width="3" height="13.249211356466901" /><rect  x="560" y="392.42902208201895" width="3" height="7.570977917981054" /><rect  x="565" y="392.42902208201895" width="3" height="7.570977917981054" /><rect  x="570" y="400" width="3" height="0" /><rect  x="575" y="397.1608832807571" width="3" height="2.839116719242895" /><rect  x="580" y="394.3217665615142" width="3" height="5.67823343848579" /><rect  x="585" y="399.05362776025237" width="3" height="0.9463722397476317" /><rect  x="590" y="393.3753943217666" width="3" height="6.624605678233422" /><rect  x="595" y="398.10725552050474" width="3" height="1.8927444794952635" /><rect  x="600" y="398.10725552050474" width="3" height="1.8927444794952635" /><rect  x="605" y="399.05362776025237" width="3" height="0.9463722397476317" /><rect  x="610" y="399.05362776025237" width="3" height="0.9463722397476317" /><rect  x="615" y="398.10725552050474" width="3" height="1.8927444794952635" /><rect  x="620" y="400" width="3" height="0" /><rect  x="625" y="398.10725552050474" width="3" height="1.8927444794952635" /><rect  x="630" y="399.05362776025237" width="3" height="0.9463722397476317" /><rect  x="635" y="400" width="3" height="0" /><rect  x="640" y="400" width="3" height="0" /><rect  x="645" y="399.05362776025237" width="3" height="0.9463722397476317" /></g><text  class="poloto_text" alignment-baseline="start" text-anchor="middle" font-size="x-large" x="400" y="37.5" >Histogram</text><text  class="poloto_text" alignment-baseline="start" text-anchor="middle" font-size="x-large" x="400" y="481.25" >x</text><text  class="poloto_text" alignment-baseline="start" text-anchor="middle" font-size="x-large" transform="rotate(-90,37.5,250)" x="37.5" y="250" >y</text><line  class="poloto_axis_lines" stroke="black" x1="150" x2="150" y1="400" y2="405" /><text  class="poloto_text" alignment-baseline="start" text-anchor="middle" x="150" y="430" > 0</text><line  class="poloto_axis_lines" stroke="black" x1="250" x2="250" y1="400" y2="405" /><text  class="poloto_text" alignment-baseline="start" text-anchor="middle" x="250" y="430" > 20</text><line  class="poloto_axis_lines" stroke="black" x1="350" x2="350" y1="400" y2="405" /><text  class="poloto_text" alignment-baseline="start" text-anchor="middle" x="350" y="430" > 40</text><line  class="poloto_axis_lines" stroke="black" x1="450" x2="450" y1="400" y2="405" /><text  class="poloto_text" alignment-baseline="start" text-anchor="middle" x="450" y="430" > 60</text><line  class="poloto_axis_lines" stroke="black" x1="550" x2="550" y1="400" y2="405" /><text  class="poloto_text" alignment-baseline="start" text-anchor="middle" x="550" y="430" > 80</text><line  class="poloto_axis_lines" stroke="black" x1="650" x2="650" y1="400" y2="405" /><text  class="poloto_text" alignment-baseline="start" text-anchor="middle" x="650" y="430" > 100</text><line  class="poloto_axis_lines" stroke="black" x1="150" x2="144" y1="400" y2="400" /><text  class="poloto_text" alignment-baseline="middle" text-anchor="end" x="135" y="400" > 0</text><line  class="poloto_axis_lines" stroke="black" x1="150" x2="144" y1="305.3627760252366" y2="305.3627760252366" /><text  class="poloto_text" alignment-baseline="middle" text-anchor="end" x="135" y="305.3627760252366" > 100</text><line  class="poloto_axis_lines" stroke="black" x1="150" x2="144" y1="210.7255520504732" y2="210.7255520504732" /><text  class="poloto_text" alignment-baseline="middle" text-anchor="end" x="135" y="210.7255520504732" > 200</text><line  class="poloto_axis_lines" stroke="black" x1="150" x2="144" y1="116.0883280757098" y2="116.0883280757098" /><text  class="poloto_text" alignment-baseline="middle" text-anchor="end" x="135" y="116.0883280757098" > 300</text><path  stroke="black" fill="none" class="poloto_axis_lines" style="stroke-dasharray:8.333333333333334;stroke-dashoffset:-0;" d=" M 150 400 L 650 400" /><path  stroke="black" fill="none" class="poloto_axis_lines" style="stroke-dasharray:9.46372239747634;stroke-dashoffset:-0;" d=" M 150 400 L 150 100" /></svg>